<?xml version="1.0" encoding="utf-8"?>
<!-- Generator: Adobe Illustrator 21.0.0, SVG Export Plug-In . SVG Version: 6.00 Build 0)  -->
<svg version="1.1" id="Layer_1" xmlns="http://www.w3.org/2000/svg" xmlns:xlink="http://www.w3.org/1999/xlink" x="0px" y="0px"
	 viewBox="0 0 64 64" style="enable-background:new 0 0 64 64;" xml:space="preserve">
<style type="text/css">
	.st0{fill:#455A64;stroke:#37474F;stroke-linecap:round;stroke-linejoin:round;stroke-miterlimit:10;}
	.st1{fill:#78909C;stroke:#37474F;stroke-linecap:round;stroke-linejoin:round;stroke-miterlimit:10;}
	.st2{fill:#ECEFF1;stroke:#37474F;stroke-linecap:round;stroke-linejoin:round;stroke-miterlimit:10;}
	.st3{fill:none;stroke:#FFFFFF;stroke-linecap:round;stroke-linejoin:round;stroke-miterlimit:10;}
	.st4{fill:#FFCA28;stroke:#37474F;stroke-linecap:round;stroke-linejoin:round;stroke-miterlimit:10;}
	.st5{fill:none;stroke:#37474F;stroke-linecap:round;stroke-linejoin:round;stroke-miterlimit:10;}
	.st6{fill:#B0BEC5;}
	.st7{fill:#37474F;}
	.st8{fill:#455A64;}
	.st9{fill:#9CCC65;stroke:#37474F;stroke-linecap:round;stroke-linejoin:round;stroke-miterlimit:10;}
	.st10{fill:none;stroke:#C5E1A5;stroke-linecap:round;stroke-linejoin:round;stroke-miterlimit:10;}
	.st11{fill:#26C6DA;stroke:#37474F;stroke-linecap:round;stroke-linejoin:round;stroke-miterlimit:10;}
	.st12{fill:#EF5350;stroke:#37474F;stroke-linecap:round;stroke-linejoin:round;stroke-miterlimit:10;}
	.st13{fill:#B0BEC5;stroke:#37474F;stroke-linecap:round;stroke-linejoin:round;stroke-miterlimit:10;}
	.st14{fill:none;stroke:#EF9A9A;stroke-linecap:round;stroke-linejoin:round;stroke-miterlimit:10;}
	.st15{fill:none;stroke:#FFE082;stroke-linecap:round;stroke-linejoin:round;stroke-miterlimit:10;}
	.st16{fill:#D32F2F;stroke:#37474F;stroke-linecap:round;stroke-linejoin:round;stroke-miterlimit:10;}
	.st17{fill:#0097A7;stroke:#37474F;stroke-linecap:round;stroke-linejoin:round;stroke-miterlimit:10;}
	.st18{fill:#689F38;stroke:#37474F;stroke-linecap:round;stroke-linejoin:round;stroke-miterlimit:10;}
	.st19{fill:#FFA000;stroke:#37474F;stroke-linecap:round;stroke-linejoin:round;stroke-miterlimit:10;}
	.st20{fill:#FFA000;}
	.st21{fill:#FF6F00;}
	.st22{fill:#D32F2F;}
	.st23{fill:#0097A7;}
	.st24{fill:none;stroke:#80DEEA;stroke-linecap:round;stroke-linejoin:round;stroke-miterlimit:10;}
	.st25{fill:#689F38;}
	.st26{fill:none;stroke:#B0BEC5;stroke-linecap:round;stroke-linejoin:round;stroke-miterlimit:10;}
	.st27{fill:#78909C;stroke:#37474F;stroke-miterlimit:10;}
	.st28{fill:#78909C;}
	.st29{fill:#B71C1C;}
	.st30{fill:#F57F17;}
	.st31{fill:#006064;}
	.st32{fill:#26A69A;stroke:#37474F;stroke-linecap:round;stroke-linejoin:round;stroke-miterlimit:10;}
</style>
<g>
	<path class="st19" d="M5,12.8v13c0,2.8,2.2,5,5,5h3c0.6,0,1,0.4,1,1v4.6c0,0.9,1.1,1.3,1.7,0.7l4.8-4.8c0.9-0.9,2.2-1.5,3.5-1.5H32
		c2.8,0,5-2.2,5-5v-13c0-2.8-2.2-5-5-5H10C7.2,7.8,5,10.1,5,12.8z"/>
	<path class="st4" d="M5,8.8v13c0,2.8,2.2,5,5,5h3c0.6,0,1,0.4,1,1v4.6c0,0.9,1.1,1.3,1.7,0.7l4.8-4.8c0.9-0.9,2.2-1.5,3.5-1.5H32
		c2.8,0,5-2.2,5-5v-13c0-2.8-2.2-5-5-5H10C7.2,3.8,5,6.1,5,8.8z"/>
	<path class="st15" d="M7,12.8v-4c0-1.7,1.3-3,3-3h4"/>
	<path class="st16" d="M59,35.8v13c0,2.8-2.2,5-5,5h-3c-0.6,0-1,0.4-1,1v4.6c0,0.9-1.1,1.3-1.7,0.7l-4.8-4.8
		c-0.9-0.9-2.2-1.5-3.5-1.5H32c-2.8,0-5-2.2-5-5v-13c0-2.8,2.2-5,5-5h22C56.8,30.8,59,33.1,59,35.8z"/>
	<path class="st12" d="M59,31.8v13c0,2.8-2.2,5-5,5h-3c-0.6,0-1,0.4-1,1v4.6c0,0.9-1.1,1.3-1.7,0.7l-4.8-4.8
		c-0.9-0.9-2.2-1.5-3.5-1.5H32c-2.8,0-5-2.2-5-5v-13c0-2.8,2.2-5,5-5h22C56.8,26.8,59,29.1,59,31.8z"/>
	<path class="st14" d="M29,35.8v-4c0-1.7,1.3-3,3-3h4"/>
	<path class="st2" d="M50.3,43.7l-6-12c-0.3-0.5-0.8-0.8-1.3-0.8s-1.1,0.3-1.3,0.8l-6,12c-0.4,0.7-0.1,1.6,0.7,2
		c0.7,0.4,1.6,0.1,2-0.7l1.1-2.2h7.1l1.1,2.2c0.3,0.5,0.8,0.8,1.3,0.8c0.2,0,0.5-0.1,0.7-0.2C50.4,45.3,50.7,44.4,50.3,43.7z
		 M40.9,39.8l2.1-4.1l2.1,4.1H40.9z"/>
	<path class="st2" d="M27.3,19.5c0.8-1.2,1.2-2.6,1.2-4.1c0-4.1-3.4-7.5-7.5-7.5s-7.5,3.4-7.5,7.5s3.4,7.5,7.5,7.5
		c1.5,0,2.9-0.5,4.1-1.2l0.8,0.8c0.3,0.3,0.7,0.4,1.1,0.4s0.8-0.1,1.1-0.4c0.6-0.6,0.6-1.5,0-2.1L27.3,19.5z M21,19.8
		c-2.5,0-4.5-2-4.5-4.5s2-4.5,4.5-4.5s4.5,2,4.5,4.5c0,0.7-0.2,1.3-0.5,1.9l-0.9-0.9c-0.6-0.6-1.5-0.6-2.1,0c-0.6,0.6-0.6,1.5,0,2.1
		l0.9,0.9C22.3,19.7,21.7,19.8,21,19.8z"/>
	<path class="st2" d="M43.5,8.9L43.5,8.9c-0.8-0.3-1.1-1.2-0.8-2L45,1.4c0.3-0.8,1.2-1.1,2-0.8l0,0c0.8,0.3,1.1,1.2,0.8,2l-2.3,5.5
		C45.1,8.9,44.2,9.2,43.5,8.9z"/>
	<path class="st2" d="M50.1,13.4L50.1,13.4c-0.6-0.6-0.6-1.5,0-2.1L54.4,7c0.6-0.6,1.5-0.6,2.1,0v0c0.6,0.6,0.6,1.5,0,2.1l-4.2,4.2
		C51.7,14,50.7,14,50.1,13.4z"/>
	<path class="st2" d="M54.6,20L54.6,20c-0.3-0.8,0-1.6,0.8-2l5.5-2.3c0.8-0.3,1.6,0,2,0.8v0c0.3,0.8,0,1.6-0.8,2l-5.5,2.3
		C55.8,21.2,54.9,20.8,54.6,20z"/>
	<path class="st2" d="M20.5,55.1L20.5,55.1c0.8,0.3,1.1,1.2,0.8,2L19,62.6c-0.3,0.8-1.2,1.1-2,0.8h0c-0.8-0.3-1.1-1.2-0.8-2l2.3-5.5
		C18.9,55.1,19.8,54.8,20.5,55.1z"/>
	<path class="st2" d="M13.9,50.6L13.9,50.6c0.6,0.6,0.6,1.5,0,2.1L9.6,57c-0.6,0.6-1.5,0.6-2.1,0l0,0c-0.6-0.6-0.6-1.5,0-2.1
		l4.2-4.2C12.3,50,13.3,50,13.9,50.6z"/>
	<path class="st2" d="M9.4,44L9.4,44c0.3,0.8,0,1.6-0.8,2l-5.5,2.3c-0.8,0.3-1.6,0-2-0.8h0c-0.3-0.8,0-1.6,0.8-2l5.5-2.3
		C8.2,42.8,9.1,43.2,9.4,44z"/>
</g>
</svg>
